<?xml version="1.0" encoding="UTF-8"?>
<!DOCTYPE svg PUBLIC "-//W3C//DTD SVG 1.1//EN" "http://www.w3.org/Graphics/SVG/1.1/DTD/svg11.dtd">
<!-- Creator: CorelDRAW 2018 (64-Bit) -->
<svg xmlns="http://www.w3.org/2000/svg" xml:space="preserve" width="210mm" height="210mm" version="1.1" style="shape-rendering:geometricPrecision; text-rendering:geometricPrecision; image-rendering:optimizeQuality; fill-rule:evenodd; clip-rule:evenodd"
viewBox="0 0 21000 21000"
 xmlns:xlink="http://www.w3.org/1999/xlink">
 <defs>
  <style type="text/css">
   <![CDATA[
    .fil0 {fill:#E31E24}
   ]]>
  </style>
 </defs>
 <g id="Layer_x0020_1">
  <metadata id="CorelCorpID_0Corel-Layer"/>
  <path class="fil0" d="M17850 3011.05l0 -7 -108.5 -103.25c-49.7,-47.25 -101.15,-91.7 -151.9,-137.9 -22.75,-21 -45.5,-41.65 -68.25,-61.95 -104.3,-94.15 -210.35,-185.85 -317.8,-275.45 -19.25,-16.1 -38.85,-32.2 -58.1,-47.95 -113.4,-93.1 -228.55,-183.4 -345.45,-271.6 -14.7,-11.2 -29.4,-22.05 -44.1,-32.9 -123.2,-91.7 -247.8,-180.6 -374.15,-266.35 -10.15,-7 -20.3,-13.65 -30.45,-20.65 -130.9,-88.2 -263.55,-173.25 -397.95,-255.15 -8.4,-5.25 -16.8,-10.5 -25.55,-15.4 -135.8,-82.25 -273.35,-161.35 -412.65,-237.3 -9.45,-5.25 -18.55,-10.15 -28,-15.4 -137.9,-74.55 -277.2,-145.95 -417.9,-214.2 -12.95,-6.3 -26.25,-12.6 -39.2,-18.9 -136.85,-65.8 -274.75,-128.1 -414.4,-187.6 -19.25,-8.05 -38.15,-16.45 -57.4,-24.5 -133,-55.65 -267.05,-108.5 -402.5,-158.9 -4.9,-1.75 -9.45,-3.85 -14.35,-5.6 -4.9,-2.1 -10.15,-3.85 -15.05,-5.95 -17.5,-6.65 -35.35,-12.6 -52.85,-18.9 -127.4,-46.2 -255.5,-89.25 -384.65,-130.55 -36.4,-11.55 -72.8,-23.8 -109.55,-35 -120.75,-37.1 -242.55,-71.4 -365.05,-103.95 -45.5,-12.25 -91,-25.2 -136.85,-36.75 -114.8,-29.05 -230.3,-54.95 -346.5,-80.15 -53.55,-11.55 -107.1,-24.15 -161,-35 -110.25,-22.05 -221.2,-40.95 -332.15,-59.5 -60.2,-10.15 -119.7,-21.35 -180.25,-30.1 -108.5,-16.1 -218.05,-29.05 -327.25,-41.65 -63,-7.35 -125.3,-16.1 -188.3,-22.4 -116.55,-11.55 -233.8,-19.25 -351.05,-26.95 -56.35,-3.5 -112,-9.1 -168.35,-11.9 -172.9,-9.8 -347.2,-14.35 -522.55,-14.35 -175.35,0 -349.65,4.55 -523.6,13.3 -56.35,2.8 -112,8.4 -168.35,11.9 -117.25,7.7 -234.5,15.4 -351.05,26.95 -63.35,6.3 -125.65,15.05 -188.3,22.4 -109.55,12.95 -218.75,25.55 -327.25,41.65 -60.55,9.1 -120.05,20.3 -180.25,30.1 -110.95,18.55 -221.9,37.45 -332.15,59.5 -53.9,10.85 -107.45,23.45 -161,35 -115.85,25.2 -231.7,51.1 -346.5,80.15 -45.85,11.55 -91.35,24.5 -136.85,36.75 -122.15,32.55 -243.95,66.85 -365.05,103.95 -36.75,11.2 -72.8,23.1 -109.55,35 -129.15,40.95 -257.25,84.35 -384.65,130.55 -17.5,6.3 -35.35,12.6 -52.85,18.9 -5.25,2.1 -10.15,3.85 -15.05,5.95 -4.9,1.75 -9.45,3.85 -14.35,5.6 -135.1,50.4 -269.5,103.25 -402.5,158.9 -19.25,8.05 -38.15,16.45 -57.4,24.5 -139.3,59.5 -277.55,121.8 -414.4,187.6 -12.95,6.3 -26.25,12.6 -39.2,18.9 -140.7,68.25 -280,139.65 -417.9,214.2 -9.45,5.25 -18.9,10.15 -28,15.4 -139.3,75.95 -276.5,155.05 -412.65,237.3 -8.4,5.25 -16.8,10.5 -25.55,15.4 -134.4,81.9 -267.05,166.95 -397.95,255.15 -10.15,7 -20.3,13.65 -30.45,20.65 -126.35,85.75 -251.3,174.65 -374.15,266.35 -14.7,10.85 -29.4,22.05 -44.1,32.9 -116.9,87.85 -231.7,178.5 -345.45,271.6 -19.6,15.75 -38.85,31.85 -58.1,47.95 -107.45,89.6 -213.15,181.3 -317.8,275.45 -22.75,20.65 -45.5,41.3 -68.25,61.95 -49.35,47.25 -101.15,91.7 -150.85,138.95l-108.5 103.25 0 7c-1942.15,1906.45 -3150,4558.75 -3150,7488.95 0,5789.7 4710.3,10500 10500,10500 5789.7,0 10500,-4710.3 10500,-10500 0,-2930.2 -1207.85,-5582.5 -3150,-7488.95zm-7353.5 15175.65l2.1 2.8 -5.6 0 3.5 -2.8zm-2793 -4032c726.6,-768.95 1730.75,-1204.7 2796.5,-1204.7 1065.75,0 2069.9,435.75 2796.5,1204.7l-2796.5 3503.5 -2796.5 -3503.5zm6030.85 -548.45c-852.6,-864.85 -2007.6,-1356.25 -3234.35,-1356.25 -1226.75,0 -2381.75,491.4 -3234.35,1356.25l-3273.9 -4101.3 3008.25 -2406.95 3154.9 2524.2 0.7 33.95 106.4 51.8 189 139.65 53.9 -26.25 58.1 26.6 172.9 -138.6 114.1 -62.3 0 -28.35 3150 -2520.35 3008.25 2406.6 -3273.9 4101.3zm-9821 -10356.85c1.05,-1.05 2.1,-2.1 3.5,-2.8 578.55,-525.7 1220.1,-983.15 1911.7,-1359.75 4.2,-2.1 8.4,-4.55 12.6,-6.65 131.95,-71.4 265.65,-140 401.1,-205.8 11.9,-5.6 23.45,-11.2 35.35,-16.8 122.5,-58.8 246.75,-114.8 372.4,-168.7l0 4993.1 -2800 2239.65 0 -5411.7c21.35,-19.95 42,-40.95 63.35,-60.55zm3731 -2123.8c108.15,-32.9 217.35,-63.7 327.25,-93.1 46.55,-12.6 93.45,-25.2 140.35,-36.75 102.9,-25.9 206.5,-49.35 310.45,-71.75 53.55,-11.55 107.1,-23.8 161.35,-34.3 99.05,-19.6 198.8,-36.75 298.9,-53.55 58.45,-9.8 116.9,-20.3 175.7,-29.05 99.05,-14.7 199.15,-26.6 298.9,-38.15 59.5,-7 118.65,-15.05 178.15,-21 106.75,-10.5 214.55,-17.5 322.35,-24.5 52.85,-3.5 105,-8.4 158.2,-11.2 44.1,-2.1 89.25,-1.75 134.05,-3.5l0 8013.25 -2800 -2240 0 -5259.8c59.15,-20.3 117.95,-41.3 177.8,-60.2 38.5,-12.25 77.35,-24.5 116.55,-36.4zm3497.9 -402.15c107.8,7 215.6,14 322.35,24.5 59.5,5.95 119,14 178.15,21 100.1,11.55 199.85,23.45 298.9,38.15 58.8,8.75 117.25,19.25 175.7,29.05 100.1,16.8 199.85,33.95 298.9,53.55 53.9,10.85 107.45,22.75 161.35,34.3 103.95,22.4 207.9,46.2 310.45,71.75 46.9,11.9 93.45,24.5 140.35,36.75 109.9,29.4 219.1,60.2 327.25,93.1 38.85,11.9 77.7,24.15 116.55,36.4 59.85,19.25 118.65,40.25 177.8,60.2l0 5259.8 -2800 2240 0 -8013.25c44.8,1.4 89.95,1.05 134.4,3.5 52.85,2.45 105.35,7.7 157.85,11.2zm3615.85 950.95c135.45,65.8 269.15,134.05 401.1,205.8 4.2,2.1 8.4,4.55 12.6,6.65 691.6,376.6 1333.15,834.05 1911.7,1359.75 1.05,1.05 2.1,1.75 3.5,2.8 21,19.6 41.65,40.6 63,60.55l0 5411.7 -2800 -2239.65 0 -4993.1c125.65,53.9 249.9,109.9 372.75,168.7 11.9,5.95 23.8,11.2 35.35,16.8zm-4258.1 18625.6c-5403.65,0 -9800,-4396.35 -9800,-9800 0,-2479.05 926.8,-4744.25 2450,-6471.85l0 5227.95 0 316.4 7004.2 8774.5 1.75 70.35 0.35 0 0 3.85 112 52.5 173.6 136.5 7 -3.15 2.45 1.75 53.9 -26.25 55.3 25.2 2.8 -2.1 6.3 2.8 163.8 -135.8 48.3 -26.6 68.25 -34.65 0 -3.5 0 -66.15 7000 -8769.25 0 -316.4 0 -5227.95c1523.2,1727.6 2450,3992.8 2450,6471.85 0,5403.65 -4396.35,9800 -9800,9800z"/>
 </g>
</svg>
