<?xml version="1.0" encoding="UTF-8"?>
<!DOCTYPE svg PUBLIC "-//W3C//DTD SVG 1.1//EN" "http://www.w3.org/Graphics/SVG/1.1/DTD/svg11.dtd">
<!-- Creator: CorelDRAW 2018 (64-Bit) -->
<svg xmlns="http://www.w3.org/2000/svg" xml:space="preserve" width="210mm" height="178.188mm" version="1.1" style="shape-rendering:geometricPrecision; text-rendering:geometricPrecision; image-rendering:optimizeQuality; fill-rule:evenodd; clip-rule:evenodd"
viewBox="0 0 21000 17818.76"
 xmlns:xlink="http://www.w3.org/1999/xlink">
 <defs>
  <style type="text/css">
   <![CDATA[
    .fil0 {fill:#E31E24}
   ]]>
  </style>
 </defs>
 <g id="Layer_x0020_1">
  <metadata id="CorelCorpID_0Corel-Layer"/>
  <g id="_2904156165280">
   <path class="fil0" d="M10500 17818.76c-93.55,0 -183.27,-41.36 -243.09,-113.27l-10181.82 -12090.91c-95.45,-113.27 -100.54,-277.46 -11.45,-395.82l3818.18 -5090.91c59.82,-80.18 154.64,-127.27 254.55,-127.27l12727.27 0c99.91,0 194.73,47.09 254.55,127.27l3818.18 5090.91c89.09,118.36 84,282.55 -11.45,395.82l-10181.82 12090.91c-59.83,71.91 -149.55,113.27 -243.1,113.27zm-9775.18 -12420.54l9775.18 11608.54 9775.18 -11608.55 -3570.63 -4761.27 -12409.1 0 -3570.63 4761.28z"/>
   <path class="fil0" d="M20681.82 5727.85l-20363.64 0c-175.63,0 -318.18,-141.91 -318.18,-318.18 0,-176.27 142.55,-318.18 318.18,-318.18l20363.64 0c175.64,0 318.18,142.55 318.18,318.18 0,175.63 -142.55,318.18 -318.18,318.18z"/>
   <path class="fil0" d="M10500 17818.76c-31.82,0 -64.27,-4.45 -95.45,-14.64 -168,-52.82 -260.91,-231.64 -207.45,-399l3818.18 -12090.91c52.82,-167.36 232.91,-261.55 399,-207.45 168,52.82 260.91,231.64 207.45,399l-3818.18 12090.91c-42.64,135.55 -168.64,222.09 -303.55,222.09z"/>
   <path class="fil0" d="M10500 17818.76c-134.91,0 -260.91,-86.55 -303.55,-222.73l-3818.18 -12090.91c-52.82,-167.36 40.09,-346.18 207.45,-399 168,-54.09 346.18,40.09 399,207.45l3818.18 12090.91c52.82,167.36 -40.09,346.18 -207.45,399 -31.18,10.83 -63.63,15.28 -95.45,15.28z"/>
   <path class="fil0" d="M6681.82 5727.85c-117.09,0 -229.09,-64.27 -285.09,-175.64l-2545.45 -5090.91c-78.28,-157.18 -14.64,-348.08 142.54,-426.99 157.82,-78.28 348.09,-14.64 427,142.54l2545.45 5090.91c78.91,157.18 14.64,348.09 -142.55,427 -45.17,22.27 -93.54,33.09 -141.9,33.09z"/>
   <path class="fil0" d="M6681.82 5727.85c-66.18,0 -133,-21 -190.27,-63.64 -140.64,-105.64 -169.27,-304.82 -63.64,-445.45l3818.18 -5090.91c105.64,-140.64 304.82,-168.64 445.45,-63.64 140.64,105.64 169.27,304.82 63.64,445.45l-3818.18 5090.91c-63,83.37 -158.45,127.28 -255.18,127.28z"/>
   <path class="fil0" d="M14318.18 5727.85c-96.73,0 -192.18,-43.91 -254.55,-127.27l-3818.18 -5090.91c-105.64,-140.64 -77,-339.82 63.64,-445.45 140,-106.27 339.82,-77.64 445.45,63.64l3818.18 5090.91c105.64,140.64 77,339.82 -63.64,445.45 -57.26,43.27 -124.08,63.63 -190.9,63.63z"/>
   <path class="fil0" d="M14318.18 5727.85c-47.73,0 -96.09,-10.82 -141.91,-33.73 -157.18,-78.91 -220.82,-269.82 -142.55,-427l2545.45 -5090.91c78.91,-157.18 269.18,-220.82 427,-142.55 157.18,78.91 220.82,269.82 142.55,427l-2545.45 5090.91c-56.63,112.01 -168.63,176.28 -285.09,176.28z"/>
  </g>
 </g>
</svg>
