<svg height="512" viewBox="0 0 64 64" width="512" xmlns="http://www.w3.org/2000/svg"><g id="Truck-7" data-name="Truck"><path d="m61.287 29.535-3.682-6.135a7.036 7.036 0 0 0 -6-3.4h-5.605v-6a2 2 0 0 0 -2-2h-2v2h2v6h-4v-4a1 1 0 0 0 -.293-.707l-5-5a1 1 0 0 0 -.707-.293h-29a3 3 0 0 0 -3 3v32a3 3 0 0 0 3 3h3.08a6.991 6.991 0 0 0 13.84 0h20.16a6.991 6.991 0 0 0 13.84 0h3.08a3 3 0 0 0 3-3v-12.892a5 5 0 0 0 -.713-2.573zm-5.4-5.107 3.347 5.572h-15.234v-8h7.6a5.027 5.027 0 0 1 4.291 2.428zm-51.887 20.572v-32a1 1 0 0 1 1-1h28.586l4.414 4.414v29.586h-16.08a6.991 6.991 0 0 0 -13.84 0h-3.08a1 1 0 0 1 -1-1zm11 7a5 5 0 1 1 5-5 5.006 5.006 0 0 1 -5 5zm34 0a5 5 0 1 1 5-5 5.006 5.006 0 0 1 -5 5zm10-6h-3.08a6.991 6.991 0 0 0 -13.84 0h-2.08v-24h2v9a1 1 0 0 0 1 1h16.985c0 .036.015.071.015.108v1.892h-4a2 2 0 0 0 -2 2v2a2 2 0 0 0 2 2h4v2h-3v2h3v1a1 1 0 0 1 -1 1zm1-10v2h-4v-2z"/><path d="m42 34h4v2h-4z"/><path d="m14 46h2v2h-2z"/><path d="m48 46h2v2h-2z"/></g></svg>