<?xml version="1.0" encoding="UTF-8"?>
<!DOCTYPE svg PUBLIC "-//W3C//DTD SVG 1.1//EN" "http://www.w3.org/Graphics/SVG/1.1/DTD/svg11.dtd">
<!-- Creator: CorelDRAW 2018 (64-Bit) -->
<svg xmlns="http://www.w3.org/2000/svg" xml:space="preserve" width="209.999mm" height="210.004mm" version="1.1" style="shape-rendering:geometricPrecision; text-rendering:geometricPrecision; image-rendering:optimizeQuality; fill-rule:evenodd; clip-rule:evenodd"
viewBox="0 0 20999.72 21000.25"
 xmlns:xlink="http://www.w3.org/1999/xlink">
 <defs>
  <style type="text/css">
   <![CDATA[
    .fil0 {fill:#E31E24}
   ]]>
  </style>
 </defs>
 <g id="Layer_x0020_1">
  <metadata id="CorelCorpID_0Corel-Layer"/>
  <path class="fil0" d="M19999.47 1000.01c-1334.11,-1333.35 -3504.03,-1333.35 -4838.14,0l-13706.73 13706.73c-6.47,6.46 -10.27,14.45 -15.97,21.29 -7.98,9.12 -14.82,19 -22.05,28.89 -20.14,28.13 -35.73,58.15 -47.51,90.84 -3.42,9.88 -8.36,18.62 -11.02,28.51 -1.14,3.8 -3.42,7.6 -4.56,11.4l-1343.61 5644.3c-6.08,25.47 -7.6,51.31 -8.36,76.78 0,4.94 -1.52,9.5 -1.52,14.44 0.38,43.33 9.88,85.52 24.71,126.19 3.42,9.5 7.22,17.86 11.4,26.99 18.62,40.67 41.81,79.82 74.5,112.51 36.11,36.11 78.68,63.86 124.67,82.86 45.99,19 95.02,28.51 144.05,28.51 29.27,0 58.91,-3.42 87.8,-10.26l5644.3 -1343.61c10.26,-2.28 19.38,-7.98 29.27,-11.4 12.92,-4.18 25.09,-9.12 37.63,-14.82 27.37,-12.54 52.83,-28.13 76.4,-46.75 9.12,-7.22 18.62,-12.54 27.37,-20.52 3.04,-3.04 6.84,-4.56 9.88,-7.6l13707.11 -13707.11c1334.11,-1334.14 1334.11,-3504.44 0.38,-4838.17zm-537.45 537.45c945.66,946.04 1026.23,2431.42 247.06,3472.87l-3719.93 -3719.93c1041.83,-779.18 2527.21,-698.61 3472.87,247.06zm-1881.43 5644.3l-3762.87 -3762.87 537.45 -537.45 3762.87 3762.87 -537.45 537.45zm-15694.98 11932.1c-148.62,-148.62 -388.83,-148.62 -537.45,0l-287.73 287.73 970.74 -4077.58 1680.75 -186.62 -216.27 1946.81c-1.52,14.44 3.8,27.75 3.8,41.81 0,14.44 -5.32,27.37 -3.8,41.81 1.52,12.54 7.98,22.81 10.64,34.97 4.56,22.05 11.02,42.19 19,62.71 9.88,24.71 21.67,47.13 36.11,68.8 11.78,17.48 23.57,33.07 38.01,48.27 18.24,19.38 38.01,35.73 59.67,50.93 17.1,11.78 33.45,22.81 52.45,31.93 25.1,11.78 51.33,18.62 78.69,25.08 14.44,3.42 26.23,11.4 41.05,13.3 13.68,1.52 27.37,2.28 41.43,2.28 0,0 0.38,0 0.38,0 0,0 0.38,0 0.38,0l0.38 0.01c0,0 0.38,0 0.38,0 13.68,0 27.75,-0.76 41.43,-2.28l1946.81 -216.27 -186.62 1680.75 -4077.96 970.74 287.73 -287.73c148.23,-148.24 148.23,-388.83 0,-537.45zm4770.1 -2082.5l8505.61 -8505.99c148.62,-148.62 148.62,-388.83 0,-537.45 -148.62,-148.62 -388.83,-148.62 -537.45,0l-8505.6 8505.99 -1814.16 201.45 201.45 -1814.16 8506.37 -8505.61c148.62,-148.62 148.62,-388.83 0,-537.45 -148.62,-148.62 -388.83,-148.62 -537.45,0l-8506.38 8505.61 -1209.82 134.55 10521.98 -10521.98 3762.87 3762.87 -10521.98 10521.97 134.55 -1209.81zm11999.76 -10924.5l-3762.87 -3762.87 537.83 -537.83 3762.87 3762.87 -537.83 537.83z"/>
 </g>
</svg>
