<?xml version="1.0" encoding="UTF-8"?>
<!DOCTYPE svg PUBLIC "-//W3C//DTD SVG 1.1//EN" "http://www.w3.org/Graphics/SVG/1.1/DTD/svg11.dtd">
<!-- Creator: CorelDRAW 2018 (64-Bit) -->
<svg xmlns="http://www.w3.org/2000/svg" xml:space="preserve" width="210.007mm" height="118.478mm" version="1.1" style="shape-rendering:geometricPrecision; text-rendering:geometricPrecision; image-rendering:optimizeQuality; fill-rule:evenodd; clip-rule:evenodd"
viewBox="0 0 21001.34 11848.18"
 xmlns:xlink="http://www.w3.org/1999/xlink">
 <defs>
  <style type="text/css">
   <![CDATA[
    .fil0 {fill:#E31E24}
   ]]>
  </style>
 </defs>
 <g id="Layer_x0020_1">
  <metadata id="CorelCorpID_0Corel-Layer"/>
  <g id="_2904165777040">
   <g>
    <path class="fil0" d="M14411.39 10026.83l-7653.96 0c-185.64,0 -336.29,-150.65 -336.29,-336.29 0,-185.64 150.65,-336.29 336.29,-336.29l7653.96 0c185.64,0 336.29,150.65 336.29,336.29 0,185.64 -150.65,336.29 -336.29,336.29z"/>
    <path class="fil0" d="M4936.07 11848.18c-1190.47,0 -2158.31,-967.84 -2158.31,-2157.64 0,-1190.47 967.84,-2158.31 2158.31,-2158.31 1189.8,0 2157.64,967.84 2157.64,2158.31 0.01,1189.13 -968.51,2157.64 -2157.64,2157.64zm0 -3643.37c-819.21,0 -1485.73,666.53 -1485.73,1485.73 0,819.2 666.53,1485.06 1485.73,1485.06 819.2,0 1485.06,-665.85 1485.06,-1485.06 0,-819.21 -665.85,-1485.73 -1485.06,-1485.73z"/>
    <path class="fil0" d="M16232.74 11848.18c-1189.8,0 -2157.64,-967.84 -2157.64,-2157.64 0,-1190.47 967.84,-2158.31 2157.64,-2158.31 1190.47,0 2158.31,967.84 2158.31,2158.31 0.01,1189.13 -968.51,2157.64 -2158.31,2157.64zm0 -3643.37c-819.21,0 -1485.06,666.53 -1485.06,1485.73 0,819.2 665.85,1485.06 1485.06,1485.06 819.21,0 1485.73,-665.85 1485.73,-1485.06 0,-819.21 -666.52,-1485.73 -1485.73,-1485.73z"/>
   </g>
   <path class="fil0" d="M14414.08 10026.83l-7655.98 0c-185.64,0 -336.29,-150.65 -336.29,-336.29 0,-185.64 150.65,-336.29 336.29,-336.29l7655.98 0c185.64,0 336.29,150.65 336.29,336.29 0,185.64 -150.65,336.29 -336.29,336.29z"/>
   <path class="fil0" d="M19392.53 10026.83l-1339.78 0c-185.64,0 -336.29,-150.65 -336.29,-336.29 0,-185.64 150.65,-336.29 336.29,-336.29l1339.78 0c515.87,0 935.56,-419.69 935.56,-935.56l0 -1298.75c0,-478.88 -195.05,-946.99 -535.38,-1285.3l-1508.6 -1499.19c-28.25,-28.25 -51.11,-61.2 -68.6,-97.52l-1236.88 -2676.88c-249.53,-540.09 -795,-888.48 -1388.88,-888.48l-13851.8 0c-587.16,0 -1065.36,478.21 -1065.36,1065.37l0 6681.42c0,515.87 419.01,935.56 934.89,935.56l1503.89 0c185.64,0 336.29,150.65 336.29,336.29 0,185.64 -150.65,336.29 -336.29,336.29l-1503.89 0c-886.47,-0.68 -1607.47,-721.68 -1607.47,-1608.82l0 -6680.74c0,-958.43 779.52,-1737.95 1737.95,-1737.95l13851.81 0c855.53,0 1640.42,501.75 2000.25,1278.58l1211.32 2622.39 1466.23 1456.81c466.09,462.73 733.78,1105.73 733.78,1762.17l0 1298.75c-0.67,887.13 -722.35,1608.13 -1608.81,1608.13z"/>
   <path class="fil0" d="M14459.15 5403.51l-9687.19 0c-185.64,0 -336.29,-150.65 -336.29,-336.29 0,-185.64 150.65,-336.29 336.29,-336.29l9687.19 0c185.64,0 336.29,150.65 336.29,336.29 0,185.64 -150.66,336.29 -336.29,336.29z"/>
  </g>
 </g>
</svg>
