<?xml version="1.0" encoding="UTF-8"?>
<!DOCTYPE svg PUBLIC "-//W3C//DTD SVG 1.1//EN" "http://www.w3.org/Graphics/SVG/1.1/DTD/svg11.dtd">
<!-- Creator: CorelDRAW 2018 (64-Bit) -->
<svg xmlns="http://www.w3.org/2000/svg" xml:space="preserve" width="85.2566mm" height="96.9513mm" version="1.1" style="shape-rendering:geometricPrecision; text-rendering:geometricPrecision; image-rendering:optimizeQuality; fill-rule:evenodd; clip-rule:evenodd"
viewBox="0 0 8525.38 9694.81"
 xmlns:xlink="http://www.w3.org/1999/xlink">
 <defs>
  <style type="text/css">
   <![CDATA[
    .fil0 {fill:#E31E24}
   ]]>
  </style>
 </defs>
 <g id="Layer_x0020_1">
  <metadata id="CorelCorpID_0Corel-Layer"/>
  <path class="fil0" d="M158.66 9694.81c16.69,-0.01 33.27,-2.66 49.12,-7.79l2927.3 -952.89c75.58,-24.49 142.88,-69.93 193.82,-130.89l5036.49 -6017.17c103.3,-123.72 159.97,-280.05 159.97,-441.34 0,-203.33 -89.9,-396.33 -245.46,-527.17l-1737.25 -1457.09c-123.92,-103.63 -280.42,-160.47 -441.98,-160.47 -203.01,0 -395.94,89.74 -526.7,244.89l-5048.58 6006.95c-51.14,60.7 -84.19,134.86 -95.24,213.45l-428.62 3048.67c-1.03,7.3 -1.55,14.71 -1.55,22.09 0,87.66 71.09,158.74 158.74,158.74 0,0 0.02,0 0.02,0l-0.1 0.01zm184.17 -1626.87l866.88 727.06 -1015.63 330.72 148.75 -1057.78zm1082.11 -1233.32l4199.56 -5007 810.87 680.09 -4199.54 5007 -810.89 -680.09zm-243.28 -204.01l-509.7 -427.53 4204.62 -5002.77 504.67 423.32 -4199.59 5006.98zm1510.99 1681.66l-1127.09 366.86 -1170.64 -981.84 165.04 -1173.76 2132.69 1788.74zm296.32 -165.91l-509.89 -427.69 4199.54 -5006.92 504.75 423.32 -4194.4 5011.29zm2670.88 -7878.1c70.44,-83.58 174.26,-131.89 283.61,-131.89 86.98,0 171.29,30.65 237.98,86.44l1737.27 1457.09c83.75,70.39 132.21,174.41 132.21,283.87 0,86.86 -30.52,171 -86.14,237.66l-577.64 690.12 -2306.29 -1934.39 579 -688.91z"/>
 </g>
</svg>
