<?xml version="1.0" encoding="UTF-8"?>
<!DOCTYPE svg PUBLIC "-//W3C//DTD SVG 1.1//EN" "http://www.w3.org/Graphics/SVG/1.1/DTD/svg11.dtd">
<!-- Creator: CorelDRAW 2018 (64-Bit) -->
<svg xmlns="http://www.w3.org/2000/svg" xml:space="preserve" width="210mm" height="210mm" version="1.1" style="shape-rendering:geometricPrecision; text-rendering:geometricPrecision; image-rendering:optimizeQuality; fill-rule:evenodd; clip-rule:evenodd"
viewBox="0 0 21000 21000"
 xmlns:xlink="http://www.w3.org/1999/xlink">
 <defs>
  <style type="text/css">
   <![CDATA[
    .fil0 {fill:#E31E24}
   ]]>
  </style>
 </defs>
 <g id="Layer_x0020_1">
  <metadata id="CorelCorpID_0Corel-Layer"/>
  <g id="_2904165794160">
   <path class="fil0" d="M19918.89 8166.67l-1964.67 0c-315.78,0 -575.94,-173.83 -696.89,-465.5 -120.95,-291.67 -59.5,-598.89 163.33,-822.11l1389.11 -1388.72c204.17,-204.17 316.56,-476 316.56,-764.56 0,-288.94 -112.39,-560.39 -316.56,-764.94l-1770.61 -1770.61c-408.33,-408.33 -1120.39,-409.11 -1529.5,0l-1388.72 1388.72c-223.22,222.83 -531.22,285.06 -822.11,163.72 -291.66,-120.95 -465.5,-381.11 -465.5,-696.89l0 -1964.67c0,-596.17 -484.94,-1081.11 -1081.11,-1081.11l-2504.44 0c-596.17,0 -1081.11,484.94 -1081.11,1081.11l0 1964.67c0,315.78 -173.83,575.94 -465.5,696.89 -290.89,121.72 -598.89,59.11 -822.11,-163.72l-1388.72 -1388.72c-409.11,-409.11 -1121.17,-408.33 -1529.5,0l-1770.61 1770.61c-204.17,204.17 -316.56,476 -316.56,764.94 0,288.56 112.39,560 316.56,764.56l1389.11 1388.72c222.83,223.22 283.89,530.44 163.33,822.11 -120.56,291.67 -381.11,465.5 -696.89,465.5l-1964.67 0c-596.17,0 -1081.11,484.94 -1081.11,1081.11l0 2504.06c0,596.55 484.94,1081.49 1081.11,1081.49l1964.67 0c315.78,0 575.94,173.83 696.89,465.5 120.95,291.67 59.5,598.89 -163.33,822.11l-1389.11 1388.72c-204.17,204.17 -316.56,476 -316.56,764.56 0,288.94 112.39,560.39 316.56,764.94l1770.61 1770.61c408.72,408.72 1120.39,409.5 1529.5,0l1388.72 -1389.11c223.22,-222.83 530.06,-284.28 822.11,-163.33 291.67,120.94 465.5,381.11 465.5,696.89l0 1964.67c0,596.17 484.94,1081.11 1081.11,1081.11l2504.05 0c596.17,0 1081.11,-484.94 1081.11,-1081.11l0 -1964.67c0,-315.78 173.83,-575.94 465.5,-696.89 292.06,-121.33 598.89,-59.5 822.11,163.33l1388.72 1389.11c409.11,409.11 1121.17,408.33 1529.5,0l1770.61 -1770.61c204.17,-204.17 316.56,-476 316.56,-764.94 0,-288.56 -112.39,-560 -316.56,-764.56l-1389.11 -1388.72c-222.83,-223.22 -283.89,-530.44 -163.33,-822.11 120.56,-291.67 381.5,-465.5 697.28,-465.5l1964.67 0c596.17,0 1081.11,-484.94 1081.11,-1081.11l0 -2504.44c0,-596.17 -484.94,-1081.11 -1081.11,-1081.11zm303.33 3585.55c0,167.22 -136.11,303.34 -303.33,303.34l-1964.67 0c-631.56,0 -1174.06,362.44 -1415.56,945.78 -241.89,583.33 -114.72,1223.44 332.11,1669.89l1389.11 1388.72c118.61,118.61 118.61,311.11 0,429.33l-1770.61 1770.61c-118.22,118.22 -310.72,119 -429.33,0l-1388.72 -1389.11c-446.83,-446.83 -1086.56,-573.22 -1669.89,-332.11 -583.33,241.5 -945.78,784 -945.78,1415.56l0 1964.67c0.01,167.21 -136.11,303.32 -303.33,303.32l-2504.44 0c-167.22,0 -303.34,-136.11 -303.34,-303.33l0 -1964.67c0,-631.56 -362.44,-1174.06 -945.78,-1415.56 -195.61,-81.28 -397.06,-120.94 -596.17,-120.94 -394.33,0 -776.61,155.56 -1073.72,452.67l-1388.72 1389.11c-119,119 -311.5,118.22 -429.33,0l-1770.61 -1770.61c-118.61,-118.61 -118.61,-311.11 0,-429.33l1389.11 -1388.72c446.44,-446.44 574,-1086.56 332.11,-1669.89 -241.5,-582.95 -784,-945.39 -1415.55,-945.39l-1964.67 0c-167.22,0 -303.33,-136.12 -303.33,-303.34l0 -2504.44c0,-167.22 136.11,-303.34 303.33,-303.34l1964.67 0c631.56,0 1174.06,-362.44 1415.56,-945.78 241.89,-583.33 114.72,-1223.44 -332.11,-1669.89l-1389.11 -1388.72c-118.61,-118.61 -118.61,-311.11 0,-429.33l1770.61 -1770.61c118.22,-118.61 310.72,-118.61 429.33,0l1388.72 1388.72c446.06,446.06 1085.78,574 1669.89,332.11 583.33,-241.11 945.77,-783.61 945.77,-1415.16l0 -1964.67c0,-167.22 136.12,-303.33 303.34,-303.33l2504.05 0c167.61,0 303.73,136.11 303.73,303.33l0 1964.67c0,631.56 362.44,1174.06 945.78,1415.56 584.11,241.89 1223.44,114.33 1669.89,-332.11l1388.72 -1388.72c119,-118.61 311.5,-118.61 429.33,0l1770.61 1770.61c118.61,118.61 118.61,311.11 0,429.33l-1389.11 1388.72c-446.44,446.44 -574,1086.56 -332.11,1669.89 241.5,583.33 784,945.78 1415.56,945.78l1964.66 -0.01c167.22,-0.39 303.33,135.73 303.33,302.95l0 2504.44z"/>
   <path class="fil0" d="M10500 7000c-1930.06,0 -3500,1569.94 -3500,3500 0,1930.06 1569.94,3500 3500,3500 1930.06,0 3500,-1569.94 3500,-3500 0,-1930.06 -1569.94,-3500 -3500,-3500zm0 6222.22c-1500.72,0 -2722.22,-1221.5 -2722.22,-2722.22 0,-1500.72 1221.5,-2722.22 2722.22,-2722.22 1500.72,0 2722.22,1221.5 2722.22,2722.22 0,1500.72 -1221.5,2722.22 -2722.22,2722.22z"/>
  </g>
 </g>
</svg>
